HIERARCHY
ROOT Hips
{
 OFFSET 0.000000 0.000000 0.000000
 CHANNELS 6 Xposition Yposition Zposition Yrotation Xrotation Zrotation
 JOINT Chest
 {
  OFFSET 0.000000 9.876138 0.000104
  CHANNELS 3 Yrotation Xrotation Zrotation
  JOINT Chest2
  {
   OFFSET 0.000000 10.876137 -0.000189
   CHANNELS 3 Yrotation Xrotation Zrotation
   JOINT Chest3
   {
    OFFSET 0.000000 9.827065 0.000000
    CHANNELS 3 Yrotation Xrotation Zrotation
    JOINT Chest4
    {
     OFFSET 0.000000 9.827065 0.000000
     CHANNELS 3 Yrotation Xrotation Zrotation
     JOINT Neck
     {
      OFFSET 0.000000 13.837564 0.000000
      CHANNELS 3 Yrotation Xrotation Zrotation
      JOINT Head
      {
       OFFSET 0.000000 9.147059 -0.000448
       CHANNELS 3 Yrotation Xrotation Zrotation
       End Site
       {
        OFFSET 0.000000 17.513050 -0.000234
       }
      }
     }
     JOINT RightCollar
     {
      OFFSET -3.007721 7.720841 0.000000
      CHANNELS 3 Yrotation Xrotation Zrotation
      JOINT RightShoulder
      {
       OFFSET -14.032560 0.000000 0.000000
       CHANNELS 3 Yrotation Xrotation Zrotation
       JOINT RightElbow
       {
        OFFSET -30.066960 0.000000 0.000000
        CHANNELS 3 Yrotation Xrotation Zrotation
        JOINT RightWrist
        {
         OFFSET -24.575760 0.000000 0.000000
         CHANNELS 3 Yrotation Xrotation Zrotation
         JOINT Prop1
         {
          OFFSET -3.508170 -1.002334 -2.004669
          CHANNELS 3 Yrotation Xrotation Zrotation
          End Site
          {
           OFFSET -75.170726 -33.091210 23.052386
          }
         }
         End Site
         {
          OFFSET -18.342717 0.000000 0.000000
         }
        }
       }
      }
     }
     JOINT LeftCollar
     {
      OFFSET 3.007721 7.720841 0.000000
      CHANNELS 3 Yrotation Xrotation Zrotation
      JOINT LeftShoulder
      {
       OFFSET 14.032560 0.000000 0.000000
       CHANNELS 3 Yrotation Xrotation Zrotation
       JOINT LeftElbow
       {
        OFFSET 30.066960 0.000000 0.000000
        CHANNELS 3 Yrotation Xrotation Zrotation
        JOINT LeftWrist
        {
         OFFSET 24.575760 0.000000 -0.000000
         CHANNELS 3 Yrotation Xrotation Zrotation
         End Site
         {
          OFFSET 18.342717 0.000000 0.000000
         }
        }
       }
      }
     }
    }
   }
  }
 }
 JOINT RightHip
 {
  OFFSET -8.019680 -0.000509 -0.000052
  CHANNELS 3 Yrotation Xrotation Zrotation
  JOINT RightKnee
  {
   OFFSET 0.000000 -41.754945 0.000049
   CHANNELS 3 Yrotation Xrotation Zrotation
   JOINT RightAnkle
   {
    OFFSET 0.000000 -40.737371 0.000083
    CHANNELS 3 Yrotation Xrotation Zrotation
    JOINT RightToe
    {
     OFFSET 0.000000 -6.498123 14.692914
     CHANNELS 3 Yrotation Xrotation Zrotation
     End Site
     {
      OFFSET 0.000000 -1.503208 6.410318
     }
    }
   }
  }
 }
 JOINT LeftHip
 {
  OFFSET 8.019680 -0.000509 -0.000052
  CHANNELS 3 Yrotation Xrotation Zrotation
  JOINT LeftKnee
  {
   OFFSET 0.000000 -41.754945 0.000049
   CHANNELS 3 Yrotation Xrotation Zrotation
   JOINT LeftAnkle
   {
    OFFSET 0.000000 -40.737371 0.000083
    CHANNELS 3 Yrotation Xrotation Zrotation
    JOINT LeftToe
    {
     OFFSET 0.000000 -6.498123 14.692914
     CHANNELS 3 Yrotation Xrotation Zrotation
     End Site
     {
      OFFSET 0.000000 -1.503208 6.410318
     }
    }
   }
  }
 }
}
MOTION
Frames: 8
Frame Time: 0.016667
0.000000 88.808225 0.000000 0.000000 -5.826342 0.000000 0.000000 11.116423 0.000000 0.000000 -5.290081 0.000000 0.000000 0.000000 0.000000 0.000000 0.000000 0.000000 0.000000 12.665069 0.000000 0.000000 0.575450 0.000000 0.000000 0.000000 0.000000 0.000000 0.000000 0.000000 2.337306 0.000000 0.000000 -2.337306 0.000000 0.000000 0.000000 0.000000 0.000000 0.000000 0.000000 0.000000 0.000000 0.000000 0.000000 -2.337306 0.000000 0.000000 2.337306 0.000000 0.000000 0.000000 8.578828 0.000000 0.000000 1.905768 0.000000 0.000000 -4.658254 0.000000 0.000000 0.000000 0.000000 0.000000 8.578828 0.000000 0.000000 1.905768 0.000000 0.000000 -4.658254 0.000000 0.000000 0.000000 0.000000
-12.931363 75.430648 31.298598 -145.664980 -2.875953 3.365047 -0.016968 11.988464 -1.829566 0.035369 5.322158 -0.814753 0.035369 5.322158 -0.814753 0.033621 3.991580 -0.610934 -16.756680 9.645307 7.378812 -35.436882 -13.865863 21.318596 0.392969 -3.557009 6.239945 -43.394989 -61.390095 82.256227 25.461001 -1.441839 3.156698 -14.364970 2.616318 -18.909902 -5.513680 10.980716 -91.675900 5.962655 -11.347627 -9.754600 23.323746 -8.046211 -69.087723 -33.056289 29.652111 0.477320 -3.783229 0.231045 13.318959 -24.401104 -50.097135 -5.991104 -23.725230 48.198816 -30.376448 8.197973 -3.355527 -0.454559 -0.001425 0.009285 -0.003171 20.814877 -15.521872 29.886456 -18.468716 54.656627 -34.866123 -0.267370 -30.284191 0.656430 0.007848 -0.012788 -0.054618
-12.907640 75.425456 31.302304 -145.685564 -2.843362 3.358873 -0.016850 11.979400 -1.819236 0.034675 5.318763 -0.810218 0.034675 5.318763 -0.810218 0.033057 3.989035 -0.607529 -16.769519 9.593536 7.367918 -35.475870 -13.957367 21.323230 0.423069 -3.555349 6.219718 -43.367242 -61.403420 82.233008 25.501142 -1.535708 3.208944 -14.371587 2.608019 -18.911116 -5.528284 10.995287 -91.670746 5.984736 -11.372322 -9.778547 23.302337 -8.016735 -69.087613 -32.791791 29.595209 0.541207 -3.805993 0.226010 13.294691 -24.380357 -50.138951 -5.975989 -23.757642 48.213288 -30.378349 8.174400 -3.348439 -0.473601 -0.001369 0.006718 -0.001500 20.801486 -15.567984 29.889901 -18.448288 54.685737 -34.855272 -0.259005 -30.280801 0.649734 0.009626 -0.012872 -0.054335
-12.880559 75.416570 31.309171 -145.700673 -2.804290 3.358225 -0.020393 11.967786 -1.812545 0.032759 5.313468 -0.807887 0.032759 5.313468 -0.807887 0.031593 3.985066 -0.605766 -16.780268 9.549818 7.357733 -35.508293 -14.035030 21.325323 0.456536 -3.519357 6.199125 -43.392937 -61.425641 82.272944 25.550877 -1.631828 3.249597 -14.373886 2.608881 -18.932843 -5.548935 10.995793 -91.664103 5.997879 -11.382117 -9.801564 23.298564 -7.993202 -69.083447 -32.546500 29.524248 0.580653 -3.808749 0.234690 13.268539 -24.324796 -50.188252 -5.989041 -23.802946 48.230173 -30.372393 8.235144 -3.360480 -0.497491 0.000112 0.015309 -0.001183 20.776024 -15.618672 29.893790 -18.424980 54.715587 -34.856339 -0.269385 -30.276296 0.653309 0.011113 -0.011697 -0.052190
-12.853516 75.409908 31.313357 -145.736950 -2.820614 3.360062 -0.015477 11.984174 -1.814426 0.035313 5.319894 -0.809230 0.035313 5.319894 -0.809230 0.033528 3.989882 -0.606794 -16.789952 9.514812 7.352555 -35.537412 -14.095725 21.332927 0.472174 -3.517318 6.192186 -43.408582 -61.431063 82.332682 25.606590 -1.616241 3.269396 -14.394169 2.532829 -18.905540 -5.569798 10.977957 -91.684277 6.001945 -11.378317 -9.814730 23.329890 -8.001062 -69.081771 -32.317254 29.524749 0.606837 -3.798583 0.229217 13.224381 -24.271598 -50.182898 -6.006210 -23.819948 48.237633 -30.363786 8.256046 -3.362306 -0.518727 0.000171 0.018735 -0.001935 20.773584 -15.610801 29.915415 -18.408540 54.731331 -34.858107 -0.276814 -30.269666 0.659037 0.011787 -0.010035 -0.050686
-12.829162 75.408005 31.312015 -145.777176 -2.886274 3.364259 -0.005126 12.020478 -1.819934 0.039992 5.336151 -0.811224 0.039992 5.336151 -0.811224 0.037074 4.002069 -0.608327 -16.801739 9.491095 7.350072 -35.567335 -14.134661 21.341817 0.469947 -3.508132 6.180957 -43.263250 -61.423575 82.253964 25.674180 -1.785220 3.283455 -14.440554 2.530107 -18.864001 -5.590639 10.985976 -91.659559 5.999950 -11.365939 -9.823643 23.374437 -8.023882 -69.090881 -32.100047 29.564893 0.631773 -3.800074 0.225877 13.172521 -24.244663 -50.140900 -6.022424 -23.806686 48.250969 -30.357378 8.242637 -3.353220 -0.536114 -0.000215 0.012649 -0.003874 20.767869 -15.545367 29.954562 -18.377814 54.739549 -34.852600 -0.270368 -30.257824 0.656033 0.010886 -0.011628 -0.049598
-12.801991 75.407088 31.309328 -145.809938 -2.930981 3.364622 0.004093 12.043585 -1.823754 0.044706 5.346820 -0.813565 0.044706 5.346820 -0.813565 0.040641 4.010064 -0.610123 -16.813956 9.482108 7.349744 -35.593440 -14.146517 21.349026 0.465204 -3.502756 6.174200 -43.117939 -61.390891 82.133357 25.762010 -1.961051 3.343258 -14.495881 2.517015 -18.807686 -5.614815 10.991126 -91.600843 6.004629 -11.351438 -9.833382 23.393646 -8.039151 -69.095701 -31.892153 29.574982 0.658769 -3.814178 0.226203 13.135523 -24.247553 -50.112051 -6.015372 -23.792683 48.260010 -30.349992 8.252655 -3.352621 -0.555310 -0.000177 0.010688 -0.006028 20.778349 -15.516217 29.986428 -18.385533 54.738833 -34.858055 -0.254430 -30.238946 0.648334 0.010763 -0.014115 -0.046163
-12.775735 75.404456 31.309329 -145.830608 -2.944262 3.371579 0.008463 12.054694 -1.835305 0.046543 5.350923 -0.817254 0.046543 5.350923 -0.817254 0.042056 4.013139 -0.612903 -16.823205 9.487096 7.357113 -35.611693 -14.131721 21.363948 0.467534 -3.465627 6.161010 -43.202658 -61.370326 82.230818 25.848181 -2.074420 3.441079 -14.523637 2.507300 -18.791277 -5.659189 11.000725 -91.555266 6.013549 -11.337984 -9.840785 23.399383 -8.037795 -69.099899 -31.724356 29.538149 0.689871 -3.820909 0.230826 13.120156 -24.307757 -50.120150 -5.969837 -23.769247 48.259808 -30.352040 8.233728 -3.341647 -0.575917 -0.000199 0.008296 -0.006131 20.799522 -15.516664 29.990603 -18.407536 54.731636 -34.865690 -0.234055 -30.227626 0.646058 0.008055 -0.010069 -0.043526
